<?xml version="1.0" encoding="UTF-8"?>
<svg version="1.1" xmlns="http://www.w3.org/2000/svg" width="239" height="211">
<path d="M0 0 C26.17332977 -0.78782598 50.511445 8.70074409 70.6484375 25.1171875 C71.27363281 25.60703125 71.89882812 26.096875 72.54296875 26.6015625 C73.95241788 27.7238405 75.30755025 28.91382715 76.6484375 30.1171875 C76.6484375 30.7771875 76.6484375 31.4371875 76.6484375 32.1171875 C77.22078125 32.33890625 77.793125 32.560625 78.3828125 32.7890625 C91.07112295 40.22703759 99.06301256 61.84724564 103.6484375 75.1171875 C103.6484375 75.7771875 103.6484375 76.4371875 103.6484375 77.1171875 C96.04986527 77.31096555 88.45103687 77.48833057 80.85180664 77.65429688 C78.26675753 77.7126904 75.6817904 77.77483901 73.09692383 77.84082031 C69.38117397 77.93501639 65.66533846 78.0156984 61.94921875 78.09375 C60.79384109 78.12594635 59.63846344 78.1581427 58.44807434 78.1913147 C57.36733139 78.21148651 56.28658844 78.23165833 55.1730957 78.25244141 C53.75079399 78.28575058 53.75079399 78.28575058 52.29975891 78.31973267 C47.9799855 77.9897277 45.38730462 76.88934845 42.39453125 73.76171875 C41.25177734 72.35986328 41.25177734 72.35986328 40.0859375 70.9296875 C30.60263951 60.24349331 18.77378529 55.60363204 4.8125 53.73828125 C-7.15271922 53.18134162 -19.79368445 56.98752711 -29.3515625 64.1171875 C-30.05667969 64.63023438 -30.76179688 65.14328125 -31.48828125 65.671875 C-41.40072065 73.56406484 -47.36893225 85.7163964 -49.3515625 98.1171875 C-50.37698467 113.91263292 -46.9598448 128.46385365 -36.7265625 140.8671875 C-26.83383746 151.21043512 -14.7363485 157.06001337 -0.35942078 157.63616943 C2.17731093 157.66507225 4.71434362 157.67297531 7.2512207 157.66308594 C8.66199875 157.67184562 10.07276692 157.68233962 11.48352051 157.69441223 C15.26990086 157.72200046 19.05595272 157.72568302 22.84241891 157.72469234 C26.81560687 157.72784513 30.7886519 157.75351194 34.76176453 157.77667236 C42.26597329 157.81705627 49.77009554 157.83753138 57.27439612 157.85064626 C65.82600255 157.86657636 74.377463 157.9050169 82.92898428 157.94523954 C100.50211516 158.02739727 118.07515305 158.07866926 135.6484375 158.1171875 C135.6484375 175.6071875 135.6484375 193.0971875 135.6484375 211.1171875 C116.66250157 211.20779918 97.67674317 211.28134958 78.69064522 211.32443619 C69.87327406 211.34498186 61.05604769 211.37294771 52.23876953 211.41894531 C44.54548119 211.45905989 36.85229781 211.48467826 29.15890777 211.49354148 C25.09266452 211.49871499 21.02672131 211.51070336 16.9605751 211.54010773 C-15.62619051 211.76666311 -15.62619051 211.76666311 -30.3515625 207.1171875 C-31.28220016 206.82549179 -32.21283783 206.53379608 -33.17167664 206.23326111 C-35.20354055 205.55585853 -37.14121833 204.79022458 -39.1015625 203.9296875 C-39.79000244 203.63562012 -40.47844238 203.34155273 -41.18774414 203.03857422 C-52.64933215 197.95362427 -62.38273348 190.86726459 -71.3515625 182.1171875 C-72.07085937 181.4365625 -72.79015625 180.7559375 -73.53125 180.0546875 C-92.41289087 161.8143099 -103.08656158 135.41249964 -103.59277344 109.28417969 C-103.69800226 84.83601587 -96.69771626 61.99163618 -82.3515625 42.1171875 C-81.6915625 41.1271875 -81.0315625 40.1371875 -80.3515625 39.1171875 C-79.6915625 39.1171875 -79.0315625 39.1171875 -78.3515625 39.1171875 C-78.1246875 38.5809375 -77.8978125 38.0446875 -77.6640625 37.4921875 C-74.86061372 32.41928018 -71.07739788 28.4380448 -66.3515625 25.1171875 C-65.6915625 25.1171875 -65.0315625 25.1171875 -64.3515625 25.1171875 C-64.3515625 24.4571875 -64.3515625 23.7971875 -64.3515625 23.1171875 C-45.6890666 8.4499673 -23.53183862 1.17268299 0 0 Z " fill="#FB366C" transform="translate(103.3515625,-0.1171875)"/>
<path d="M0 0 C27.39 0 54.78 0 83 0 C83 17.49 83 34.98 83 53 C50.99 53 18.98 53 -14 53 C-12.02 50.36 -10.04 47.72 -8 45 C-6.68127196 42.7048092 -5.42516977 40.37190229 -4.25 38 C-3.67765625 36.865625 -3.1053125 35.73125 -2.515625 34.5625 C0.36853565 27.78323578 1.31284019 21.71069925 1.1875 14.375 C1.18685547 13.65054688 1.18621094 12.92609375 1.18554688 12.1796875 C1.15077585 7.91444212 0.7163953 4.29837183 0 0 Z " fill="#FC366D" transform="translate(156,91)"/>
<path d="M0 0 C27.39 0 54.78 0 83 0 C83 17.49 83 34.98 83 53 C50.99 53 18.98 53 -14 53 C-11.525 50.525 -11.525 50.525 -9 48 C-9.33 48.99 -9.66 49.98 -10 51 C20.36 51.33 50.72 51.66 82 52 C82 35.5 82 19 82 2 C55.6 2 29.2 2 2 2 C1.67 3.32 1.34 4.64 1 6 C0.67 4.02 0.34 2.04 0 0 Z " fill="#E34773" transform="translate(156,91)"/>
<path d="M0 0 C0.33 0.99 0.66 1.98 1 3 C1.99 3.33 2.98 3.66 4 4 C1.34771188 5.07525194 -1.28368454 6.09456151 -4 7 C-4.73323796 9.01508358 -4.73323796 9.01508358 -5 11 C-5.66 11 -6.32 11 -7 11 C-6.34 12.65 -5.68 14.3 -5 16 C-5.763125 16.103125 -6.52625 16.20625 -7.3125 16.3125 C-10.17059424 17.04364039 -11.15742885 17.76951913 -13 20 C-11.69616712 16.45207016 -10.13915322 13.48746794 -8 10.375 C-7.484375 9.61960937 -6.96875 8.86421875 -6.4375 8.0859375 C-5.963125 7.39757813 -5.48875 6.70921875 -5 6 C-4.34 5.01 -3.68 4.02 -3 3 C-2.34 3 -1.68 3 -1 3 C-0.67 2.01 -0.34 1.02 0 0 Z " fill="#E63C6B" transform="translate(26,36)"/>
<path d="M0 0 C0 0.66 0 1.32 0 2 C-2.5 3.625 -2.5 3.625 -5 5 C-4.34 5.33 -3.68 5.66 -3 6 C-3.33 6.99 -3.66 7.98 -4 9 C-5.45736087 9.19491452 -6.91594593 9.38069358 -8.375 9.5625 C-9.18710937 9.66691406 -9.99921875 9.77132813 -10.8359375 9.87890625 C-13 10 -13 10 -15 9 C-13.39612733 7.8745809 -11.79189084 6.74968028 -10.1875 5.625 C-9.29417969 4.99851562 -8.40085937 4.37203125 -7.48046875 3.7265625 C-2.12669683 0 -2.12669683 0 0 0 Z " fill="#E93A6C" transform="translate(56,13)"/>
<path d="M0 0 C-0.33 0.66 -0.66 1.32 -1 2 C-3.94140625 2.4140625 -3.94140625 2.4140625 -7.5625 2.625 C-8.76003906 2.69976562 -9.95757812 2.77453125 -11.19140625 2.8515625 C-12.11824219 2.90054687 -13.04507813 2.94953125 -14 3 C-14.66 4.98 -15.32 6.96 -16 9 C-16.66 9 -17.32 9 -18 9 C-17.67 7.35 -17.34 5.7 -17 4 C-18.65 4 -20.3 4 -22 4 C-14.97120402 0.24077878 -7.84966639 -0.24919576 0 0 Z " fill="#E53C6D" transform="translate(98,1)"/>
<path d="M0 0 C2.36427071 2.36427071 3.28544423 4.59041353 4.6875 7.625 C7.42144156 13.22789258 10.61843065 17.59250421 15 22 C14.01 22 13.02 22 12 22 C9.80859375 19.76953125 9.80859375 19.76953125 7.4375 16.8125 C6.65246094 15.84957031 5.86742187 14.88664063 5.05859375 13.89453125 C3.18916691 11.26598231 2.09976466 9.00220116 1 6 C-0.52007842 4.22722741 -0.52007842 4.22722741 -2 3 C-1.34 2.01 -0.68 1.02 0 0 Z " fill="#DB3262" transform="translate(55,122)"/>
<path d="M0 0 C0.33 0 0.66 0 1 0 C1.66 7.26 2.32 14.52 3 22 C2.34 20.68 1.68 19.36 1 18 C0.34 17.67 -0.32 17.34 -1 17 C-1.02691685 14.54159395 -1.04679802 12.08348118 -1.0625 9.625 C-1.07087891 8.92632812 -1.07925781 8.22765625 -1.08789062 7.5078125 C-1.11328125 2.2265625 -1.11328125 2.2265625 0 0 Z " fill="#DB3868" transform="translate(52,100)"/>
<path d="M0 0 C0.515625 0.70125 1.03125 1.4025 1.5625 2.125 C5.08363353 6.27813185 8.76364536 10.25454845 14 12 C15.1875 14.5625 15.1875 14.5625 16 17 C9.06139071 12.81715043 3.54053304 7.89418408 -2 2 C-1.34 1.34 -0.68 0.68 0 0 Z " fill="#DD3764" transform="translate(31,177)"/>
<path d="M0 0 C0.66 0.33 1.32 0.66 2 1 C1.38511719 2.14275391 1.38511719 2.14275391 0.7578125 3.30859375 C-2.49591625 9.54360985 -4.84296192 15.05777152 -6 22 C-6.33 22 -6.66 22 -7 22 C-7.33 18.7 -7.66 15.4 -8 12 C-7.01 12 -6.02 12 -5 12 C-4.80664062 11.38511719 -4.61328125 10.77023438 -4.4140625 10.13671875 C-4.02347656 8.92435547 -4.02347656 8.92435547 -3.625 7.6875 C-3.36976562 6.88699219 -3.11453125 6.08648437 -2.8515625 5.26171875 C-2 3 -2 3 0 0 Z " fill="#D53A66" transform="translate(60,76)"/>
<path d="M0 0 C0.33 0 0.66 0 1 0 C0.98839844 0.91523437 0.97679687 1.83046875 0.96484375 2.7734375 C0.95582031 3.96195312 0.94679687 5.15046875 0.9375 6.375 C0.92589844 7.55835937 0.91429687 8.74171875 0.90234375 9.9609375 C0.78533407 12.91921521 0.78533407 12.91921521 2 15 C1.0625 17.625 1.0625 17.625 0 20 C-2.12936806 16.80594791 -2.23418211 16.50812339 -1.7578125 12.98828125 C-1.66113281 12.23095703 -1.56445312 11.47363281 -1.46484375 10.69335938 C-1.35269531 9.90767578 -1.24054687 9.12199219 -1.125 8.3125 C-1.02058594 7.51521484 -0.91617188 6.71792969 -0.80859375 5.89648438 C-0.54948177 3.92958889 -0.27610346 1.96458233 0 0 Z " fill="#E43F6B" transform="translate(2,84)"/>
<path d="M0 0 C0 0.33 0 0.66 0 1 C-1.08539063 1.26554687 -2.17078125 1.53109375 -3.2890625 1.8046875 C-4.73440647 2.16133082 -6.17971722 2.5181088 -7.625 2.875 C-8.69427734 3.13603516 -8.69427734 3.13603516 -9.78515625 3.40234375 C-13.92796216 4.42854338 -17.96726678 5.58790729 -22 7 C-15.64469878 0.2378045 -8.98664705 -0.59470458 0 0 Z " fill="#DA3B69" transform="translate(100,53)"/>
<path d="M0 0 C0.66 0 1.32 0 2 0 C2 0.66 2 1.32 2 2 C2.66 2 3.32 2 4 2 C6 5 6 5 7 7 C7.66 7 8.32 7 9 7 C9.33 7.99 9.66 8.98 10 10 C8.68 10 7.36 10 6 10 C4.296875 8.06640625 4.296875 8.06640625 2.75 5.5625 C2.22921875 4.73878906 1.7084375 3.91507813 1.171875 3.06640625 C0 1 0 1 0 0 Z " fill="#E43364" transform="translate(15,160)"/>
<path d="M0 0 C3.48331435 3.01887244 4.79157144 5.56909529 6 10 C4.02 9.34 2.04 8.68 0 8 C0.33 7.01 0.66 6.02 1 5 C0.67 4.67 0.34 4.34 0 4 C0 2.68 0 1.36 0 0 Z " fill="#E43368" transform="translate(193,48)"/>
<path d="M0 0 C4.12751449 0.60698743 7.3321148 2.03810791 11 4 C8 5 8 5 4 5 C1.75 2.5 1.75 2.5 0 0 Z " fill="#E32F5F" transform="translate(144,8)"/>
<path d="M0 0 C2.875 0.6875 2.875 0.6875 6 2 C7.375 4.625 7.375 4.625 8 7 C6.66144944 6.21718695 5.32926356 5.42348123 4 4.625 C3.2575 4.18414062 2.515 3.74328125 1.75 3.2890625 C1.1725 2.86367187 0.595 2.43828125 0 2 C0 1.34 0 0.68 0 0 Z " fill="#DB315A" transform="translate(39,187)"/>
</svg>
